# xmcd CD database file
# Copyright (C) 1997 Ti Kan
# 
# Track frame offsets:
#     150
#     13677
#     25315
#     37662
#     50580
#     63905
#     74835
#     92365
#     104102
#     117962
#     135305
#     148752
#     160022
#     172420
#     183490
#     197705
#     209342
#     220125
#     233052
#     245687
# 
# Disc length: 3436 seconds
# 
# Revision: 1
# Processed by: cddbd v1.4b41PL1 Copyright (c) Steve Scherf et al.
# Submitted via: DiscPlay 4.0.3
# 
DISCID=280d6a14
DTITLE=SAM and DAVE - PEARLS OF THE PAST
DYEAR=1900
DGENRE=
TTITLE0=WONDERFUL WORLD
TTITLE1=SOUL SISTER, BROWN SUGAR
TTITLE2=DOCK OF THE BAY
TTITLE3=YOU GOT ME HUMMIN 
TTITLE4=GIMME SOME LOVIN 
TTITLE5=ANOTHER SATURDAY NIGHT
TTITLE6=CUPID
TTITLE7=HOLD ON I M COMING
TTITLE8=SUMMERTIME
TTITLE9=MUSTANG SALLY
TTITLE10=GOOD LOVIN 
TTITLE11=LAND OF 1.00 DANCES
TTITLE12=SATISFACTION GUARANTEED
TTITLE13=YOU DON T KNOW WHAT YOU MEAN TO ME
TTITLE14=YOU SEND ME
TTITLE15=SOOTHE ME
TTITLE16=BRING IT ON HOME
TTITLE17=I THANK YOU
TTITLE18=SAID I WOULDN T TELL NOBODY
TTITLE19=YOU DON T KNOW LIKE I KNOW
EXTD=
EXTT0=
EXTT1=
EXTT2=
EXTT3=
EXTT4=
EXTT5=
EXTT6=
EXTT7=
EXTT8=
EXTT9=
EXTT10=
EXTT11=
EXTT12=
EXTT13=
EXTT14=
EXTT15=
EXTT16=
EXTT17=
EXTT18=
EXTT19=
PLAYORDER=
